<svg xmlns="http://www.w3.org/2000/svg" width="1280" height="660" viewBox="0 0 1280 660">
  <rect width="1280" height="660" fill="#0f172a"/>
  <text x="640" y="58" text-anchor="middle" font-family="Arial, sans-serif" font-size="31" font-weight="700" fill="#f8fafc">三年情景模型：先验证，再放大</text>
  <g font-family="Arial, sans-serif">
    <line x1="130" y1="520" x2="1160" y2="520" stroke="#64748b" stroke-width="3"/>
    <line x1="130" y1="520" x2="130" y2="130" stroke="#64748b" stroke-width="3"/>
    <text x="230" y="555" text-anchor="middle" font-size="15" fill="#cbd5e1">Year 1</text>
    <text x="620" y="555" text-anchor="middle" font-size="15" fill="#cbd5e1">Year 2</text>
    <text x="1010" y="555" text-anchor="middle" font-size="15" fill="#cbd5e1">Year 3</text>
    <path d="M210 465 C420 440 760 385 1040 320" fill="none" stroke="#38bdf8" stroke-width="6"/>
    <path d="M210 485 C420 470 760 435 1040 390" fill="none" stroke="#fbbf24" stroke-width="6"/>
    <path d="M210 500 C420 492 760 480 1040 455" fill="none" stroke="#f87171" stroke-width="6"/>
    <rect x="160" y="155" width="280" height="110" rx="18" fill="#1e293b"/><text x="300" y="195" text-anchor="middle" font-size="20" font-weight="700" fill="#f8fafc">Year 1：验证</text><text x="300" y="225" text-anchor="middle" font-size="14" fill="#cbd5e1">Demo、封测、付费信号、首批内容</text>
    <rect x="500" y="155" width="280" height="110" rx="18" fill="#1e293b"/><text x="640" y="195" text-anchor="middle" font-size="20" font-weight="700" fill="#f8fafc">Year 2：重复</text><text x="640" y="225" text-anchor="middle" font-size="14" fill="#cbd5e1">垂直剧集、订阅、B 端试点</text>
    <rect x="840" y="155" width="280" height="110" rx="18" fill="#1e293b"/><text x="980" y="195" text-anchor="middle" font-size="20" font-weight="700" fill="#f8fafc">Year 3：放大</text><text x="980" y="225" text-anchor="middle" font-size="14" fill="#cbd5e1">内容库、模板化、机构复购</text>
    <text x="1035" y="305" font-size="15" fill="#38bdf8">Optimistic</text>
    <text x="1035" y="378" font-size="15" fill="#fbbf24">Base</text>
    <text x="1035" y="448" font-size="15" fill="#f87171">Conservative</text>
  </g>
</svg>
